<?xml version="1.0" standalone="no"?>
<!DOCTYPE svg PUBLIC "-//W3C//DTD SVG 1.1//EN" "http://www.w3.org/Graphics/SVG/1.1/DTD/svg11.dtd" >
<svg xmlns="http://www.w3.org/2000/svg">
<metadata>Generated by IcoMoon</metadata>
<defs>
<font id="icomoon" horiz-adv-x="1024">
<font-face units-per-em="1024" ascent="960" descent="-64" />
<missing-glyph horiz-adv-x="1024" />
<glyph unicode="&#x20;" horiz-adv-x="512" d="" />
<glyph unicode="&#xe900;" glyph-name="align-tabs-left" d="M127.488 810.155h84.987v-768h-84.987v768zM426.496 469.229h468.992v-86.191h-468.992v86.191zM554.394 298.183h341.094v-85.098h-341.094v85.098zM340.32 639.303h555.169v-85.098h-555.169v85.098z" />
<glyph unicode="&#xe901;" glyph-name="arrow-left" d="M615.638 129.66l-275.158 275.16 275.214 275.217 66.959-66.96-208.25-208.257 208.197-208.2z" />
<glyph unicode="&#xe902;" glyph-name="arrow-leftright" d="M401.793 130.512l-274.304 274.305 274.081 274.090 66.961-66.962-207.121-207.128 207.346-207.346zM621.516 130.844l-66.959 66.959 207.012 207.014-207.314 207.322 66.959 66.961 274.274-274.284z" />
<glyph unicode="&#xe903;" glyph-name="arrow-right" d="M407.294 129.416l-66.959 66.96 210.003 210.008-210.009 210.009 66.961 66.96 276.97-276.969z" />
<glyph unicode="&#xe904;" glyph-name="arrow-up" d="M719.86 254.869l-208.372 208.373-208.204-208.203-66.959 66.961 275.163 275.162 275.333-275.332z" />
<glyph unicode="&#xe905;" glyph-name="arrow-updown" d="M786.714 487.516l-146.779 146.771-146.072-146.067-66.942 66.945 213.013 213.010 213.72-213.715zM639.966 85.348l-212.748 212.748 66.942 66.945 145.807-145.805 146.318 146.311 66.944-66.946z" />
<glyph unicode="&#xe906;" glyph-name="options" d="M512.015 575.964c-42.422 0-76.795 34.372-76.795 76.795 0 42.395 34.372 76.795 76.795 76.795 42.394 0 76.765-34.4 76.765-76.795 0-42.423-34.371-76.795-76.765-76.795zM512.014 81.116c-42.422 0-76.794 34.372-76.794 76.794 0 42.396 34.372 76.795 76.794 76.795 42.395 0 76.766-34.399 76.766-76.795 0-42.422-34.371-76.794-76.766-76.794zM512.014 328.539c-42.422 0-76.794 34.373-76.794 76.795 0 42.395 34.372 76.795 76.794 76.795 42.395 0 76.766-34.4 76.766-76.795 0-42.422-34.371-76.795-76.766-76.795z" />
<glyph unicode="&#xe907;" glyph-name="calendar-month" d="M256.063 554.642h69.713v-69.714h-69.713v69.714zM403.447 554.642h69.711v-69.714h-69.711v69.714zM550.831 554.642h69.717v-69.714h-69.717v69.714zM698.219 554.642h69.713v-69.714h-69.713v69.714zM256.063 417.084h69.713v-69.713h-69.713v69.713zM403.447 417.084h69.711v-69.713h-69.711v69.713zM550.831 417.084h69.717v-69.713h-69.717v69.713zM698.219 417.084h69.713v-69.713h-69.713v69.713zM256.063 279.525h69.713v-66.224h-69.713v66.224zM403.447 279.525h69.711v-66.224h-69.711v66.224zM550.831 279.525h69.717v-66.224h-69.717v66.224zM698.219 279.525h69.713v-66.224h-69.713v66.224zM767.934 725.293v85.278h-85.411v-85.163h-341.069v85.173h-85.392v-85.288h-128.459v-640.234h767.768v640.234h-127.438zM853.311 128.317h-682.497v511.638h682.497v-511.638z" />
<glyph unicode="&#xe908;" glyph-name="calendar-week" d="M256.063 554.642h69.713v-69.714h-69.713v69.714zM403.447 554.642h69.711v-69.714h-69.711v69.714zM550.831 554.642h69.717v-69.714h-69.717v69.714zM698.219 554.642h69.713v-69.714h-69.713v69.714zM767.934 725.293v85.278h-85.411v-85.163h-341.069v85.173h-85.392v-85.288h-128.459v-640.234h767.768v640.234h-127.438zM853.311 128.317h-682.497v511.638h682.497v-511.638z" />
<glyph unicode="&#xe909;" glyph-name="card" d="M170.622 681.958v-511.609h681.732v511.609h-681.732zM783.484 613.089v-80.74h-543.993v80.74h543.993zM239.491 239.219v198.435h543.993v-198.434h-543.993z" />
<glyph unicode="&#xe90a;" glyph-name="checked" d="M505.264 296.313l-164.913 164.914 61.27 61.269 97.952-97.951 286.483 286.482 66.959-66.961zM767.956 298.527v-128.514h-512.018v512.142h127.741v84.992h-213.182v-681.984h681.984v213.364z" />
<glyph unicode="&#xe90b;" glyph-name="circle-arrowup" d="M512.013 44.994c-198.698 0-360.344 161.647-360.344 360.335 0 198.693 161.646 360.344 360.344 360.344 198.679 0 360.319-161.652 360.319-360.344 0-198.688-161.64-360.335-360.319-360.335zM512.013 696.804c-160.724 0-291.476-130.756-291.476-291.475 0-160.714 130.753-291.466 291.476-291.466 160.705 0 291.449 130.753 291.449 291.466 0 160.719-130.744 291.475-291.449 291.475zM696.14 430.613l-185.656 185.656-182.616-182.614 48.502-48.7 100.815 101.007v-277.237h68.608v274.195l101.332-101.009z" />
<glyph unicode="&#xe90c;" glyph-name="circle-danger" d="M409.461 556.571l-48.697-48.697 102.543-102.543-102.543-102.544 48.698-48.697 102.543 102.542 102.544-102.542 48.697 48.697-102.543 102.543 102.542 102.543-48.697 48.698-102.544-102.543zM512.013 765.673c-198.695 0-360.344-161.652-360.344-360.345 0-198.688 161.649-360.334 360.344-360.334 198.681 0 360.319 161.647 360.319 360.334 0 198.693-161.638 360.345-360.319 360.345zM512.013 113.862c-160.721 0-291.474 130.754-291.474 291.466 0 160.719 130.753 291.476 291.474 291.476 160.707 0 291.451-130.757 291.451-291.476 0-160.712-130.744-291.466-291.451-291.466z" />
<glyph unicode="&#xe90d;" glyph-name="circle-info" d="M468.481 447.222h85.831v-226.348h-85.831v226.348zM512.014 765.673c-198.695 0-360.346-161.65-360.346-360.343 0-198.69 161.651-360.336 360.346-360.336 198.678 0 360.318 161.646 360.318 360.336 0 198.692-161.64 360.343-360.318 360.343zM512.014 113.862c-160.721 0-291.478 130.755-291.478 291.468 0 160.719 130.756 291.474 291.478 291.474 160.703 0 291.45-130.755 291.45-291.474 0-160.713-130.746-291.468-291.45-291.468zM554.49 532.822c0-23.76-19.25-43.008-42.994-43.008-23.758 0-43.008 19.248-43.008 43.008 0 23.743 19.25 43.008 43.008 43.008 23.743 0 42.994-19.266 42.994-43.008z" />
<glyph unicode="&#xe90e;" glyph-name="circle-minus" d="M332.552 439.764h358.906v-68.87h-358.906v68.87zM512.013 44.994c-198.698 0-360.345 161.646-360.345 360.336s161.647 360.343 360.345 360.343c198.679 0 360.319-161.652 360.319-360.343s-161.64-360.336-360.319-360.336zM512.013 696.804c-160.718 0-291.475-130.757-291.475-291.473s130.757-291.468 291.475-291.468c160.707 0 291.449 130.753 291.449 291.468 0 160.717-130.742 291.473-291.449 291.473z" />
<glyph unicode="&#xe90f;" glyph-name="unchecked" d="M384 469.445h256v-42.889h-256v42.889z" />
<glyph unicode="&#xe910;" glyph-name="circle-pending" d="M608.712 252.841l-140.232 126.403v218.982h85.958v-177.13l114.652-101.265zM512.014 44.992c-198.695 0-360.346 161.648-360.346 360.337 0 198.692 161.651 360.344 360.346 360.344 198.678 0 360.318-161.653 360.318-360.344 0-198.689-161.64-360.337-360.318-360.337zM512.014 696.804c-160.721 0-291.478-130.757-291.478-291.474 0-160.715 130.756-291.468 291.478-291.468 160.703 0 291.45 130.753 291.45 291.468 0 160.718-130.746 291.474-291.45 291.474z" />
<glyph unicode="&#xe911;" glyph-name="circle-plus" d="M546.44 584.783h-68.87v-145.018h-145.018v-68.871h145.018v-145.018h68.87v145.018h145.018v68.871h-145.018zM512.013 765.673c-198.695 0-360.344-161.652-360.344-360.345 0-198.688 161.649-360.334 360.344-360.334 198.681 0 360.319 161.647 360.319 360.334 0 198.693-161.638 360.345-360.319 360.345zM512.013 113.862c-160.721 0-291.474 130.754-291.474 291.466 0 160.719 130.753 291.476 291.474 291.476 160.707 0 291.451-130.757 291.451-291.476 0-160.712-130.744-291.466-291.451-291.466z" />
<glyph unicode="&#xe912;" glyph-name="circle-success" d="M512.014 765.673c-198.695 0-360.346-161.65-360.346-360.343 0-198.69 161.651-360.336 360.346-360.336 198.678 0 360.318 161.646 360.318 360.336 0 198.692-161.64 360.343-360.318 360.343zM512.014 113.862c-160.721 0-291.478 130.755-291.478 291.468 0 160.719 130.756 291.474 291.478 291.474 160.703 0 291.45-130.755 291.45-291.474 0-160.713-130.746-291.468-291.45-291.468zM468.874 234.604l-152.334 152.338 61.27 61.268 85.374-85.374 177.034 187.786 66.961-66.96z" />
<glyph unicode="&#xe913;" glyph-name="collapse" d="M767.594 639.551l-60.099-60.098 110.51-110.509h-613.035l110.752 110.75-60.099 60.099-213.128-213.126 213.037-213.036 60.062 60.062-109.905 109.904h611.596l-109.87-109.869 60.062-60.063 213.002 213.002z" />
<glyph unicode="&#xe914;" glyph-name="comment" d="M858.499 766.496h-692.997v-649.952h137.656v-174.772l233.845 174.772h321.497v649.952zM789.63 185.412h-555.26v512.214h555.26v-512.214z" />
<glyph unicode="&#xe915;" glyph-name="comment-add" d="M858.499 766.496h-692.997v-649.952h137.656v-174.772l233.845 174.772h321.497v649.952zM789.63 185.412h-555.26v512.215h555.26v-512.215zM477.565 312.39h68.869v94.693h94.696v68.87h-94.696v94.694h-68.869v-94.694h-94.694v-68.87h94.694z" />
<glyph unicode="&#xe916;" glyph-name="comment-delete" d="M858.499 766.496h-692.997v-649.953h137.656v-174.77l233.845 174.77h321.497v649.953zM789.63 185.411h-555.26v512.215h555.26v-512.215zM382.871 475.953h258.26v-68.87h-258.26v68.87z" />
<glyph unicode="&#xe917;" glyph-name="download" d="M767.378 298.255v-127.859h-511.974v127.828h-84.822v-212.975h681.814v213.006zM554.63 810.571v-391.244l110.406 110.406 60.333-60.323-213.364-213.372-213.314 213.305 59.72 59.726 110.944-110.944v392.446z" />
<glyph unicode="&#xe918;" glyph-name="dropdown" d="M511.489 255.147l-274.869 274.867 66.959 66.961 207.91-207.907 208.079 208.078 66.96-66.961z" />
<glyph unicode="&#xe919;" glyph-name="edit" d="M767.679 767.696l128.458-128.459-86.539-86.54-128.459 129.189zM340.904 341.13l127.786-127.776 277.301 275.737-128.462 128.903zM277.017 279.012l129.554-129.55-236.040-106.491z" />
<glyph unicode="&#xe91a;" glyph-name="expand" d="M817.211 383.608l-109.845-109.843 60.048-60.048 212.949 212.949-212.833 212.832-60.083-60.084 110.482-110.481h-561.867v-85.326zM42.613 810.059h84.731v-767.808h-84.731v767.808z" />
<glyph unicode="&#xe91b;" glyph-name="expand-full" d="M554.47 767.146v-84.921h152.203l-451.186-452.279 0.001 152.973h-84.993v-297.756h298.281l-0.001 84.942-152.43-0.002 450.814 450.814v-151.885h85.32v298.115z" />
<glyph unicode="&#xe91c;" glyph-name="eye" d="M511.659 83.212c-44.061 0-86.778 8.743-126.963 25.986-38.744 16.625-73.437 40.381-103.118 70.606l-226.012 225.92 226.004 225.89c29.681 30.23 64.376 53.985 103.125 70.612 40.184 17.242 82.901 25.985 126.963 25.985 44.060 0 86.776-8.743 126.961-25.984 38.751-16.627 73.444-40.382 103.127-70.612l226.003-225.89-226.002-225.914c-29.681-30.23-64.378-53.986-103.126-70.614-40.186-17.242-82.902-25.985-126.962-25.985zM119.287 405.72l194.361-194.282c52.632-53.64 122.955-83.181 198.013-83.181s145.38 29.541 198.014 83.181l0.154 0.155 194.205 194.127-194.36 194.266c-52.632 53.638-122.956 83.178-198.014 83.178-75.060 0-145.382-29.539-198.013-83.178l-0.154-0.156-194.206-194.11zM511.659 248.202c-86.852 0-157.511 70.66-157.511 157.513 0 86.85 70.66 157.509 157.511 157.509s157.51-70.659 157.51-157.509c0-86.853-70.659-157.513-157.51-157.513zM511.659 518.179c-62.014 0-112.466-50.451-112.466-112.464 0-62.015 50.452-112.469 112.466-112.469s112.465 50.453 112.465 112.469c0 62.013-50.452 112.464-112.465 112.464z" />
<glyph unicode="&#xe91d;" glyph-name="false" d="M722.147 275.196l-150.463 150.462 151.291 151.29-60.952 60.951-151.29-151.29-150.535 150.535-60.029-60.029 150.535-150.537-150.628-150.628 60.836-60.836 150.628 150.629 150.576-150.576z" />
<glyph unicode="&#xe91e;" glyph-name="file-download-arrow" d="M383.459 754.903l-57.475-57.475 186.011-186.014 185.57 185.554-57.799 57.803-85.177-85.31-0.468 269.207h-85.217v-269.207z" />
<glyph unicode="&#xe91f;" glyph-name="history" d="M517.352 598.23v-213.955l145.807-131.429 63.4 70.339-114.514 103.217v171.828zM566.466 765.67c-67.243 0-132.851-18.651-189.73-53.935l36.305-58.52c45.967 28.51 99.021 43.585 153.425 43.585 160.706 0 291.45-130.753 291.45-291.466s-130.744-291.466-291.45-291.466c-160.724 0-291.48 130.753-291.48 291.466 0 15.679 1.287 31.155 3.72 46.399l63.028-92.574 56.928 38.757-123.545 181.46-177.902-121.118 38.76-56.931 73.115 49.782c-1.911-15.099-2.975-30.358-2.975-45.776 0-198.688 161.652-360.336 360.35-360.336 198.68 0 360.318 161.649 360.318 360.336s-161.638 360.336-360.319 360.336z" />
<glyph unicode="&#xe920;" glyph-name="delete-history" d="M566.466 765.669c-67.243 0-132.851-18.65-189.73-53.935l36.305-58.519c45.967 28.51 99.021 43.585 153.425 43.585 160.706 0 291.45-130.753 291.45-291.466s-130.744-291.465-291.45-291.465c-160.724 0-291.48 130.753-291.48 291.465 0 15.679 1.287 31.156 3.72 46.399l63.028-92.573 56.928 38.756-123.545 181.46-177.902-121.118 38.76-56.931 73.115 49.782c-1.911-15.099-2.975-30.358-2.975-45.776 0-198.688 161.652-360.337 360.35-360.337 198.68 0 360.318 161.65 360.318 360.337s-161.638 360.335-360.319 360.335zM724.132 307.349l-97.662 97.663 97.598 97.602-51.286 51.285-97.596-97.598-97.341 97.342-51.286-51.285 97.339-97.346-98.232-98.234 51.287-51.288 98.233 98.236 97.662-97.662z" />
<glyph unicode="&#xe921;" glyph-name="incoming" d="M788.234 639.584l-64.974 64.976-339.824-342.405v148.992h-84.941v-297.984h297.984v84.992h-148.992z" />
<glyph unicode="&#xe922;" glyph-name="link" d="M767.892 298.559v-128.482h-511.89v512.014h127.709v84.971h-213.129v-681.814h681.814v213.31zM384.039 361.829l319.911 319.911h-149.46l-0.006 85.317 297.905 0.005 0.006-297.906-84.461-0.004v149.47l-320.345-320.344z" />
<glyph unicode="&#xe923;" glyph-name="lock-closed" d="M682.492 554.070v96.269c0.004 102.216-70.227 159.941-171.096 159.941s-170.915-58.982-171.036-159.028v-97.079h-84.872v-469.009h512v468.907h-84.996zM426.496 651.252c-2.734 48.252 36.337 73.911 84.992 73.911s88.751-26.070 84.992-74.824v-96.099h-169.984v97.012z" />
<glyph unicode="&#xe924;" glyph-name="lock-opened" d="M767.482 552.021v2.229h-255.935v94.847c0.005 102.216-70.243 161.058-171.112 161.058s-169.816-60.133-169.937-160.178v-95.822l85.054 0.032 0.001 95.823c-2.734 48.251 36.32 75.027 84.976 75.027s89.821-27.364 86.062-76.117v-96.957h-0.184v2.095l-85.925 0.177-0.001-469.072h512l-0.001 466.858h-84.997z" />
<glyph unicode="&#xe925;" glyph-name="mail" d="M170.496 682.254v-512.078h681.976v512.078h-681.976zM728.676 618.209l-228.93-228.933-228.93 228.933h457.859zM234.371 235.123v322.136l265.375-265.376 289.883 289.881v-346.641h-555.258z" />
<glyph unicode="&#xe926;" glyph-name="map" d="M511.212 816.934c-188.097 0-341.13-153.032-341.13-341.13 0-94.956 38.998-180.974 101.819-242.878l239.214-239.194 239.357 239.149c62.854 61.905 101.87 147.942 101.87 242.922 0.001 188.1-153.031 341.131-341.129 341.131zM700.962 282.288l-0.128 0.13-189.72-189.725-189.789 189.734c-50.133 49.227-81.265 117.734-81.265 193.377 0 149.513 121.641 271.153 271.152 271.153 149.514 0 271.152-121.64 271.152-271.153-0.001-75.709-31.193-144.279-81.403-193.517zM511.248 303.919c-94.164 0-170.768 76.605-170.768 170.769s76.604 170.767 170.768 170.767 170.769-76.602 170.769-170.767c0-94.165-76.605-170.769-170.769-170.769zM511.248 576.282c-56.017 0-101.595-45.575-101.595-101.593 0-56.020 45.578-101.594 101.595-101.594s101.594 45.574 101.594 101.594c0 56.018-45.576 101.593-101.594 101.593z" />
<glyph unicode="&#xe927;" glyph-name="maximize" d="M767.292 170.084l-212.788 0.001v-84.837h297.892l-0.001 297.928-85.103-0.001zM255.553 383.25l-84.971 0.001-0.001-298.004 298.156 0.001v84.836l-213.184-0.001zM468.539 682.091v84.97l-297.958 0.001 0.001-297.799h84.92l-0.001 212.828zM767.368 469.094h85.027v297.968l-297.89-0.001v-84.97h212.863z" />
<glyph unicode="&#xe928;" glyph-name="minus" d="M255.488 511.152h512v-84.916h-512v84.916z" />
<glyph unicode="&#xe929;" glyph-name="next" d="M235.076 148.723l-64.495 64.494 213.963 212.939-214.018 212.83 64.551 64.603 277.435-277.434zM575.998 147.713l-64.51 64.479 213.963 212.939-213.938 212.71 64.471 64.723 277.435-277.434z" />
<glyph unicode="&#xe92a;" glyph-name="outgoing" d="M256.086 234.069l64.975-64.976 361.487 364.070v-148.992h84.94v297.984h-297.984v-84.992h148.992z" />
<glyph unicode="&#xe92b;" glyph-name="pending" d="M512.009 585.109c-66.028 0-119.749-53.715-119.749-119.741h68.868c0 28.052 22.825 50.872 50.881 50.872 28.044 0 50.86-22.82 50.86-50.872 0-16.953-8.376-32.695-22.438-42.191-36.057-21.535-58.402-60.819-58.402-102.859h68.867c0 18.054 9.702 34.914 25.316 44.012l2.416 1.538c33.266 22.3 53.108 59.457 53.108 99.5 0.002 66.026-53.709 119.741-119.727 119.741zM516.32 276.422c-20.961 0-37.943-17.002-37.943-37.936 0-20.954 16.982-37.924 37.943-37.924 20.938 0 37.922 16.97 37.922 37.924 0 20.935-16.984 37.936-37.922 37.936zM512.012 765.673c-198.697 0-360.344-161.652-360.344-360.345 0-198.688 161.647-360.334 360.344-360.334 198.68 0 360.32 161.647 360.32 360.334 0 198.693-161.64 360.345-360.32 360.345zM512.012 113.863c-160.719 0-291.474 130.751-291.474 291.465 0 160.72 130.756 291.476 291.474 291.476 160.706 0 291.45-130.757 291.45-291.476 0-160.714-130.744-291.465-291.45-291.465z" />
<glyph unicode="&#xe92c;" glyph-name="plus" d="M767.488 511.152h-212.838v214.011h-86.218v-214.011h-212.944v-84.915h212.945v-213.074h86.055v213.074h213z" />
<glyph unicode="&#xe92d;" glyph-name="previous" d="M787.845 127.39l64.494 64.494-213.963 212.939 214.019 212.83-64.552 64.603-277.434-277.434zM447.946 127.404l64.51 64.479-213.963 212.939 213.938 212.71-64.471 64.723-277.435-277.434z" />
<glyph unicode="&#xe92e;" glyph-name="search" d="M602.433 738.263c-133.891 0-242.818-108.928-242.818-242.816 0-49.702 15.035-95.94 40.758-134.469l-221.61-221.613 66.958-66.961 221.475 221.476c38.675-26.032 85.21-41.249 135.236-41.249 133.882 0 242.806 108.928 242.806 242.816s-108.923 242.816-242.805 242.816zM602.433 321.5c-95.916 0-173.949 78.032-173.949 173.947 0 95.913 78.033 173.946 173.949 173.946 95.908 0 173.937-78.033 173.937-173.946 0-95.915-78.029-173.947-173.937-173.947z" />
<glyph unicode="&#xe92f;" glyph-name="search-advanced" d="M602.433 738.26c-133.891 0-242.818-108.922-242.818-242.81 0-49.698 15.035-95.945 40.759-134.469l-221.611-221.615 66.958-66.959 221.476 221.473c38.678-26.028 85.209-41.242 135.235-41.242 133.882 0 242.806 108.922 242.806 242.812 0.001 133.888-108.923 242.81-242.805 242.81zM602.433 321.508c-30.951 0-60.017 8.161-85.221 22.39-27.966 15.788-51.148 39.071-66.793 67.129-13.953 25.019-21.935 53.8-21.935 84.423 0 95.914 78.033 173.942 173.949 173.942 95.908 0 173.937-78.028 173.937-173.942 0.001-95.916-78.028-173.942-173.936-173.942zM635.922 528.139v90.391h-68.868v-90.391h-86.087v-68.869h86.087v-86.087h68.868v86.087h90.392v68.869z" />
<glyph unicode="&#xe930;" glyph-name="star" d="M283.488 84.315l43.629 254.354-184.801 180.135 255.393 37.116 114.211 231.421 114.214-231.421 255.386-37.116-184.796-180.136 43.621-254.354-228.426 120.089-228.431-120.088zM511.919 255.292l168.602-88.637-32.198 187.74 136.399 132.959-188.502 27.396-84.301 170.811-84.298-170.811-188.509-27.396 136.403-132.959-32.202-187.74 168.607 88.637z" />
<glyph unicode="&#xe931;" glyph-name="tour" d="M724.692 767.062h-213.204v85.995h-84.613v-85.995h-299.219v-340.907h298.904v-383.904h84.99v383.904h212.877l171.4 171.051-171.135 169.856zM700.126 491.011h-508.558v212.578h508.558l106.616-105.531-106.616-107.048z" />
<glyph unicode="&#xe932;" glyph-name="trash-base" d="M383.488 42.155h256.044l84.948 511.895h-425.764z" />
<glyph unicode="&#xe933;" glyph-name="trash-top" d="M639.488 725.163l0.001 85.055h-256l-0.001-85.055h-128v-86.016h512.001l-0.001 86.016z" />
<glyph unicode="&#xe934;" glyph-name="true" d="M767.934 598.040l-60.952 60.951-279.965-279.966-108.548 108.7-60.951-60.951 169.471-169.47 30.252 30.251z" />
<glyph unicode="&#xe935;" glyph-name="tv" d="M603.485 554.035l218.662 191.78-45.413 51.78-265.283-232.674-205.562 171.652-44.146-52.861 155.292-129.676h-246.413v-511.609h681.733v511.609h-248.87zM783.486 111.295h-543.994v373.871h543.994v-373.871z" />
<glyph unicode="&#xe936;" glyph-name="upload-outline" d="M853.246 0.11h-682.494l0.362 724.785 128.342 128.342h553.789v-853.127zM216.82 46.178h590.357v760.99h-488.639l-101.356-101.356-0.362-659.634zM582.86 213.414h-141.727v170.375h-100.040l170.902 256.422 170.909-256.422h-100.042v-170.375zM476.964 249.245h70.065v170.375h65.913l-100.947 159.277-100.943-159.277h65.913v-170.375z" />
<glyph unicode="&#xe937;" glyph-name="user" d="M628.817 686.522c-6.534 6.531-13.372 12.35-20.477 17.524-27.060 19.706-58.239 29.602-93.567 29.602-35.378 0-66.591-9.916-93.668-29.677-7.070-5.159-13.871-10.946-20.374-17.45-31.412-31.416-47.128-69.432-47.128-114.040 0-7.847 0.512-15.478 1.485-22.913 4.418-33.804 18.891-63.388 43.375-88.758 0.762-0.787 1.486-1.585 2.268-2.369 27.208-27.207 59.374-42.614 96.48-46.256 5.738-0.563 11.587-0.865 17.562-0.865 4.66 0 9.234 0.208 13.751 0.552 38.712 2.938 72.16 18.436 100.293 46.569 1.129 1.132 2.195 2.289 3.281 3.436 23.848 25.115 37.976 54.315 42.338 87.621 0.98 7.456 1.497 15.116 1.497 22.984 0 44.609-15.709 82.625-47.116 114.041zM851.011 232.723c-7.975 22.001-25.961 42.236-54.345 60.702-39.703 25.838-83.842 44.388-131.735 55.725-26.999 6.393-52.535 10.891-76.828 13.657-18.803 2.14-36.877 3.27-54.195 3.27-4.856 0-13.889-0.080-19.474-0.124-5.595 0.044-14.717 0.124-19.573 0.124-18.663 0-38.256-1.282-58.721-3.77-23.066-2.798-47.248-7.146-72.624-13.157-47.892-11.337-93.889-29.887-133.596-55.725-28.384-18.466-47.686-38.701-56.417-60.702-3.483-8.772-5.332-17.814-5.332-27.159v-85.88h687.662v85.88c-0.002 9.346-1.639 18.387-4.822 27.16z" />
<glyph unicode="&#xe938;" glyph-name="user-added" d="M391.353 470.783c42.439 0 78.614 14.948 108.499 44.834 29.885 29.895 44.834 66.060 44.834 108.508 0 42.438-14.948 78.608-44.834 108.5-29.885 29.889-66.060 44.837-108.499 44.837-42.446 0-78.612-14.948-108.509-44.837-29.885-29.892-44.834-66.062-44.834-108.5 0-42.448 14.948-78.614 44.834-108.508 29.898-29.885 66.063-44.834 108.509-44.834zM392.245 401.922c-37.773 0-79.445-5.318-125.011-16.108-45.566-10.793-88.264-28.439-126.035-53.014-37.772-24.582-57.681-52.424-57.681-83.606v-78.685h331.247c-18.914 34.436-28.624 74.876-28.624 115.204 0 40.207 9.7 77.395 29.256 116.041-7.17 0.359-16.242 0.167-23.152 0.167zM720.559 415.856h-68.87v-94.693h-94.695v-68.87h94.695v-94.694h68.87v94.694h94.694v68.87h-94.694zM687.31 539.569c-139.608 0-253.19-113.579-253.19-253.183s113.582-253.181 253.19-253.181c139.601 0 253.172 113.576 253.172 253.181s-113.571 253.183-253.172 253.183zM687.31 102.074c-101.635 0-184.321 82.681-184.321 184.312s82.686 184.312 184.321 184.312c101.627 0 184.303-82.681 184.303-184.312s-82.676-184.312-184.303-184.312z" />
<glyph unicode="&#xe939;" glyph-name="user-deleted" d="M391.353 470.784c-42.446 0-78.612 14.945-108.509 44.834-29.885 29.895-44.834 66.056-44.834 108.503 0 42.438 14.948 78.611 44.834 108.499 29.897 29.895 66.063 44.843 108.509 44.843 42.439 0 78.614-14.948 108.499-44.843 29.885-29.887 44.834-66.061 44.834-108.499 0-42.448-14.948-78.609-44.834-108.503-29.884-29.889-66.060-44.834-108.499-44.834zM386.141 285.714c0 40.206 9.7 77.394 29.256 116.040-7.17 0.362-16.242 0.168-23.153 0.168-37.773 0-79.445-5.316-125.011-16.106-45.566-10.794-88.264-28.441-126.035-53.014-37.772-24.583-57.681-52.428-57.681-83.606v-78.686h331.247c-18.912 34.434-28.623 74.876-28.623 115.204zM556.994 321.162h258.26v-68.869h-258.26v68.869zM687.31 33.204c-139.608 0-253.19 113.578-253.19 253.183s113.582 253.181 253.19 253.181c139.601 0 253.172-113.578 253.172-253.181 0-139.605-113.571-253.183-253.172-253.183zM687.31 470.699c-101.635 0-184.321-82.682-184.321-184.312s82.686-184.314 184.321-184.314c101.627 0 184.303 82.683 184.303 184.314s-82.676 184.312-184.303 184.312z" />
<glyph unicode="&#xe93a;" glyph-name="user-pending" d="M391.353 470.785c-42.446 0-78.612 14.948-108.509 44.834-29.885 29.894-44.834 66.061-44.834 108.508 0 42.439 14.948 78.608 44.834 108.5 29.897 29.89 66.063 44.838 108.509 44.838 42.439 0 78.614-14.948 108.499-44.838s44.834-66.060 44.834-108.5c0-42.447-14.948-78.614-44.834-108.508-29.884-29.885-66.060-44.834-108.499-44.834zM386.144 285.711c0 40.211 9.697 77.398 29.253 116.041-7.17 0.361-16.239 0.169-23.153 0.169-37.773 0-79.445-5.314-125.011-16.105-45.566-10.794-88.26-28.439-126.035-53.017-37.769-24.582-57.681-52.421-57.681-83.603v-78.684h331.247c-18.912 34.435-28.62 74.873-28.62 115.2zM737.869 165.985l-86.18 108.381v141.492h68.87v-117.45l71.214-89.558zM687.31 33.203c-139.608 0-253.19 113.577-253.19 253.181 0 139.609 113.582 253.187 253.19 253.187 139.601 0 253.172-113.578 253.172-253.187 0-139.604-113.571-253.181-253.172-253.181zM687.31 470.702c-101.635 0-184.321-82.688-184.321-184.318s82.686-184.311 184.321-184.311c101.627 0 184.303 82.681 184.303 184.311s-82.676 184.318-184.303 184.318z" />
<glyph unicode="&#xe93b;" glyph-name="users" d="M388.854 588.193c10.498 10.499 21.732 19.397 33.647 26.725-6.658 14.139-15.942 27.178-27.863 39.102-27.005 27.002-59.68 40.506-98.021 40.506-38.352 0-71.022-13.505-98.032-40.506-26.994-27.005-40.501-59.677-40.501-98.017 0-38.347 13.507-71.022 40.501-98.024 27.010-27.001 59.68-40.506 98.032-40.506 15.708 0 30.451 2.304 44.257 6.838-2.577 12.287-3.916 25.072-3.916 38.364 0 48.846 17.46 91.075 51.896 125.518zM248.325 255.407c36.963 24.050 79.718 41.93 127.077 53.144 12.977 3.072 25.681 5.637 38.149 7.806-8.621 6.068-16.872 12.974-24.7 20.802-11.97 11.974-21.841 24.912-29.689 38.716-15.906 1.774-31.207 2.71-45.83 2.71-4.177 0-12.076-0.067-16.877-0.109-4.811 0.042-12.719 0.109-16.89 0.109-34.124 0-71.761-4.797-112.925-14.547-41.166-9.748-80.073-25.692-114.202-47.896-34.123-22.206-52.44-47.355-52.44-75.524v-69.982h180.258c7.407 31.693 30.196 60.131 68.067 84.772zM691.784 462.675c0-13.305-1.34-26.095-3.918-38.394 13.782-4.515 28.498-6.81 44.173-6.81 38.347 0 71.018 13.506 98.025 40.506 27.004 27.003 40.506 59.678 40.506 98.024 0 38.341-13.502 71.012-40.506 98.017-27.006 27.002-59.678 40.506-98.025 40.506-38.337 0-71.022-13.505-98.021-40.506-11.914-11.916-21.186-24.932-27.844-39.051 11.944-7.337 23.204-16.256 33.727-26.78 34.428-34.439 51.882-76.668 51.882-125.514zM1024 240.617c0 28.17-17.37 53.318-51.485 75.524-34.135 22.204-72.093 38.148-113.257 47.896-41.164 9.75-78.836 14.547-112.958 14.547-4.174 0-12.144-0.067-16.95-0.109-4.802 0.042-12.818 0.109-16.996 0.109-13.595 0-27.804-0.792-42.55-2.329-7.882-13.95-17.826-27.016-29.906-39.102-7.87-7.868-16.165-14.804-24.834-20.898 12.114-2.134 24.516-4.666 37.34-7.704 45.697-10.818 87.916-28.7 125.48-53.144 36.852-23.98 58.973-52.417 66.040-84.772h180.078v69.981zM612.402 560.694c-5.616 5.615-11.495 10.616-17.602 15.063-23.256 16.937-50.058 25.443-80.424 25.443-30.409 0-57.236-8.524-80.513-25.507-6.076-4.434-11.921-9.409-17.511-15-27.002-27.005-40.507-59.679-40.507-98.020 0-6.749 0.441-13.305 1.277-19.699 3.797-29.054 16.238-54.481 37.282-76.289 0.655-0.676 1.276-1.364 1.949-2.034 23.388-23.388 51.035-36.63 82.929-39.761 4.933-0.485 9.961-0.746 15.097-0.746 4.006 0 7.936 0.181 11.818 0.477 33.276 2.528 62.026 15.848 86.209 40.030 0.97 0.968 1.886 1.966 2.82 2.954 20.496 21.586 32.642 46.683 36.392 75.31 0.842 6.41 1.284 12.993 1.284 19.757-0.002 38.342-13.505 71.016-40.498 98.020zM803.386 170.635c-6.857 18.913-22.314 36.304-46.71 52.178-34.128 22.206-72.068 38.152-113.232 47.898-23.208 5.494-45.158 9.358-66.038 11.738-16.161 1.841-31.698 2.81-46.584 2.81-4.172 0-11.936-0.068-16.738-0.108-4.81 0.040-12.65 0.108-16.821 0.108-16.043 0-32.885-1.102-50.475-3.24-19.828-2.41-40.612-6.144-62.424-11.308-41.165-9.746-80.7-25.692-114.832-47.898-24.396-15.874-40.988-33.265-48.493-52.178-2.991-7.54-4.583-15.312-4.583-23.341v-73.819h591.072v73.819c0 8.029-1.406 15.8-4.142 23.341z" />
<glyph unicode="&#xe93c;" glyph-name="user-unknown" d="M391.353 470.785c-42.446 0-78.612 14.948-108.509 44.835-29.885 29.891-44.834 66.057-44.834 108.504 0 42.443 14.948 78.612 44.834 108.5 29.897 29.895 66.063 44.841 108.509 44.841 42.439 0 78.614-14.946 108.499-44.841 29.885-29.887 44.834-66.057 44.834-108.5 0-42.447-14.948-78.614-44.834-108.504-29.884-29.886-66.060-44.835-108.499-44.835zM386.141 285.712c0 40.211 9.7 77.394 29.256 116.040-7.17 0.362-16.242 0.169-23.153 0.169-37.773 0-79.445-5.313-125.011-16.109-45.566-10.79-88.264-28.438-126.035-53.014-37.772-24.581-57.681-52.42-57.681-83.602v-78.682h331.247c-18.912 34.432-28.623 74.87-28.623 115.198zM726.746 175.073c0-19.458-15.767-35.222-35.207-35.222-19.458 0-35.222 15.763-35.222 35.222 0 19.441 15.764 35.222 35.222 35.222 19.44-0.001 35.207-15.781 35.207-35.222zM687.31 33.203c-139.608 0-253.19 113.577-253.19 253.181 0 139.61 113.582 253.187 253.19 253.187 139.601 0 253.172-113.577 253.172-253.187 0-139.604-113.571-253.181-253.172-253.181zM687.31 470.702c-101.635 0-184.321-82.686-184.321-184.318 0-101.63 82.686-184.312 184.321-184.312 101.627 0 184.303 82.682 184.303 184.312 0.001 101.632-82.676 184.318-184.303 184.318zM724.661 229.012h-68.869c0 31.609 16.734 61.16 43.762 77.447 5.807 4.046 9.26 10.623 9.26 17.698 0 11.866-9.65 21.522-21.512 21.522-11.868 0-21.523-9.656-21.523-21.522h-68.868c0 49.84 40.55 90.392 90.392 90.392 49.835 0 90.381-40.552 90.381-90.392 0-30.198-14.951-58.223-40.019-75.065l-2.287-1.455c-6.709-3.905-10.716-10.865-10.716-18.625z" />
<glyph unicode="&#xe93d;" glyph-name="video" d="M212.48 682.155h470.016v-84.992h-470.016v84.992zM127.488 597.163h84.992v-342.016h-84.992v342.016zM682.496 682.155h84.992v-84.992h-84.992v84.992zM127.488 682.155h84.992v-84.992h-84.992v84.992zM682.496 255.147h84.992v-84.992h-84.992v84.992zM895.499 255.147l-0.022 342.016-127.99-86.016v86.016h-84.992v-342.016h84.992v86.016zM212.48 255.147h470.016v-84.992h-470.016v84.992zM127.488 255.147h84.992v-84.992h-84.992v84.992z" />
<glyph unicode="&#xe93e;" glyph-name="warning" d="M469.701 589.747h85.809v-226.291h-85.809v226.291zM511.987 45.085c198.645 0 360.256 161.609 360.256 360.252 0 198.641-161.61 360.245-360.256 360.245-198.628 0-360.228-161.604-360.228-360.245 0-198.643 161.599-360.252 360.228-360.252zM511.987 696.733c160.681 0 291.405-130.722 291.405-291.395 0-160.679-130.723-291.402-291.405-291.402-160.664 0-291.376 130.722-291.376 291.402 0 160.674 130.712 291.395 291.376 291.395zM469.522 277.878c0 23.754 19.245 42.997 42.983 42.997 23.752 0 42.997-19.243 42.997-42.997 0-23.738-19.245-42.997-42.997-42.997-23.738 0-42.983 19.26-42.983 42.997z" />
<glyph unicode="&#xe93f;" glyph-name="sort-down" d="M639.966 85.348l-212.748 212.748 66.942 66.945 145.807-145.805 146.318 146.311 66.944-66.946z" />
<glyph unicode="&#xe940;" glyph-name="sort-up" d="M786.714 487.516l-146.779 146.771-146.072-146.067-66.942 66.945 213.013 213.010 213.72-213.715z" />
<glyph unicode="&#xe941;" glyph-name="star-filled" d="M283.487 84.315l43.629 254.354-184.8 180.135 255.393 37.117 114.211 231.422 114.214-231.422 255.386-37.117-184.796-180.135 43.621-254.354-228.426 120.088-228.432-120.088z" />
<glyph unicode="&#xe942;" glyph-name="true-outline" d="M385.446 86.387l-299.403 298.234 139.922 139.696 152.767-152.762 414.103 414.108 146.282-146.267-553.672-553.008zM149.835 384.66l235.566-234.652 489.993 489.405-82.557 82.549-414.105-414.11-152.792 152.789-76.104-75.98z" />
<glyph unicode="&#xe943;" glyph-name="upload-circle" d="M512.010 765.583c-198.645 0-360.251-161.61-360.251-360.252s161.607-360.245 360.251-360.245c198.632 0 360.229 161.604 360.229 360.245s-161.597 360.252-360.229 360.252zM512.010 113.937c-160.68 0-291.402 130.72-291.402 291.393 0 160.678 130.721 291.401 291.402 291.401 160.665 0 291.377-130.722 291.377-291.401 0-160.674-130.712-291.393-291.377-291.393zM327.91 433.65l48.685-48.688 100.98 100.983v-277.228h68.854v274.186l100.979-100.985 48.686 48.687-185.615 185.612z" />
<glyph unicode="&#xe944;" glyph-name="user-outline" d="M511.147 378.605c-6.568 0-13.309 0.334-20.033 0.994-42.844 4.203-80.415 22.182-111.674 53.436-0.648 0.643-1.267 1.295-1.884 1.95-0.221 0.234-0.442 0.47-0.669 0.703-28.256 29.279-45.138 63.887-50.238 102.927-1.13 8.635-1.702 17.448-1.702 26.19 0 51.274 18.324 95.596 54.462 131.734 7.249 7.253 15.1 13.981 23.332 19.992 31.35 22.871 67.821 34.465 108.406 34.465 40.535 0 76.968-11.568 108.287-34.382 8.287-6.027 16.189-12.791 23.476-20.094 36.115-36.118 54.435-80.44 54.435-131.716 0-8.804-0.574-17.645-1.708-26.277-5.045-38.454-21.532-72.623-49.003-101.557l-0.485-0.517c-0.972-1.036-2.074-2.211-3.295-3.426-32.285-32.288-71.337-50.398-116.032-53.792-5.535-0.424-10.667-0.631-15.676-0.631zM511.147 705.954c-31.275 0-58.049-8.441-81.851-25.806-6.349-4.636-12.418-9.836-18.031-15.453-27.774-27.774-41.273-60.446-41.273-99.888 0-6.797 0.445-13.644 1.323-20.352 3.877-29.671 16.281-54.995 37.924-77.42 0.335-0.344 0.724-0.757 1.113-1.169 0.271-0.288 0.538-0.578 0.823-0.86l0.089-0.089c24.032-24.039 51.59-37.283 84.247-40.488 5.268-0.516 10.53-0.778 15.637-0.778 3.847 0 7.853 0.164 12.246 0.501 34.145 2.592 62.809 15.926 87.646 40.767 0.803 0.8 1.529 1.58 2.259 2.359l0.6 0.639c21.136 22.262 33.242 47.254 37.076 76.477 0.879 6.697 1.325 13.565 1.325 20.414 0 39.445-13.496 72.117-41.26 99.884-5.635 5.648-11.723 10.859-18.113 15.506-23.796 17.335-50.541 25.757-81.778 25.757zM882.849 43.301h-743.408v109.742c0 12.106 2.357 24.18 7.004 35.887 10.405 26.222 32.594 50.522 65.949 72.219 41.417 26.946 89.45 47.008 142.766 59.628 26.175 6.199 51.824 10.843 76.23 13.807 21.763 2.646 42.742 3.989 62.352 3.989 3.748 0 35.914 0 39.653 0 18.014 0 37.387-1.164 57.582-3.459 25.779-2.941 52.916-7.765 80.671-14.338 51.361-12.159 98.761-32.222 140.879-59.631 32.708-21.279 54.269-45.789 64.081-72.848 4.141-11.414 6.242-23.276 6.242-35.256v-109.741zM184.486 88.346h653.32v64.697c0 6.819-1.159 13.327-3.542 19.895-6.401 17.655-21.98 34.629-46.302 50.452-37.765 24.575-80.388 42.592-126.693 53.554-26.024 6.164-51.387 10.677-75.389 13.415-18.502 2.104-36.164 3.171-52.485 3.171-3.629 0-36.013 0-39.653 0-17.799 0-36.948-1.232-56.918-3.66-22.753-2.763-46.735-7.111-71.287-12.925-47.58-11.262-92.040-29.781-128.579-53.553-25.381-16.512-41.747-33.696-48.645-51.080-2.576-6.488-3.828-12.79-3.828-19.269v-64.698z" />
<glyph unicode="&#xe945;" glyph-name="compliance" d="M597.31 128.070v-127.96h383.903v127.96h-383.903zM938.568 42.804h-298.587v42.761h298.587v-42.761zM640.454 271.129l-17.124-17.125 31.852-31.85 219.824 219.829-31.851 31.852-16.756-16.756-333.043 333.042 16.965 16.965-31.851 31.852-222.1-222.096 31.851-31.851 19.185 19.185 101.129-101.129-365.751-365.756 137.186-137.182 365.751 365.753 94.733-94.734zM179.968 63.812l-73.481 73.48 333.899 333.903 73.481-73.483-333.899-333.9zM339.26 636.027l122.245 122.243 333.044-333.044-122.245-122.243-333.044 333.044z" />
<glyph unicode="&#xe946;" glyph-name="filter" d="M405.359 384.006v-341.251l213.28 147.243v194.008l319.923 383.907h-853.122l319.919-383.907zM554.656 426.663v-193.71l-85.53-62.228v255.938l-233.289 277.271h556.358l-237.539-277.271z" />
<glyph unicode="&#xe947;" glyph-name="filter-full" d="M405.359 384.006v-341.251l213.28 147.243v194.008l319.923 383.907h-853.122l319.919-383.907z" />
<glyph unicode="&#xe948;" glyph-name="arrow-double-up" d="M788.894 149.771l-64.495-64.495-212.938 213.963-212.831-214.019-64.602 64.552 277.434 277.435zM788.88 489.669l-64.481-64.51-212.938 213.963-212.711-213.939-64.722 64.472 277.434 277.435z" />
<glyph unicode="&#xe949;" glyph-name="arrow-double-down" d="M788.894 702.538l-64.495 64.495-212.938-213.963-212.831 214.019-64.602-64.552 277.434-277.435zM788.88 362.641l-64.481 64.509-212.938-213.963-212.711 213.939-64.722-64.472 277.434-277.435z" />
<glyph unicode="&#xe94a;" glyph-name="arrow-double-up-small" d="M511.882 749.529l-212.749-212.748 66.943-66.945 145.807 145.805 146.317-146.311 66.944 66.946zM511.607 408.268l-212.748-212.748 66.942-66.945 145.807 145.805 146.318-146.311 66.943 66.946z" />
<glyph unicode="&#xe94b;" glyph-name="arrow-double-down-small" d="M511.882 128.068l-212.749 212.748 66.943 66.945 145.807-145.805 146.317 146.311 66.944-66.945zM511.607 469.329l-212.748 212.749 66.942 66.944 145.807-145.805 146.318 146.311 66.943-66.945z" />
<glyph unicode="&#xe94c;" glyph-name="hide-united-01" d="M374.012 482.206c-12.644-22.664-19.864-48.748-19.864-76.491 0-86.853 70.66-157.514 157.511-157.514 27.743 0 53.829 7.219 76.493 19.865l-33.662 33.662c-13.208-5.461-27.673-8.483-42.83-8.483-62.014 0-112.466 50.454-112.466 112.47 0 15.158 3.021 29.621 8.482 42.828l-33.664 33.664zM967.749 405.722l-226.003 225.89c-29.682 30.23-64.377 53.985-103.127 70.612-40.184 17.242-82.901 25.984-126.961 25.984-44.062 0-86.778-8.742-126.963-25.984-24.757-10.622-47.842-24.182-69.035-40.459l-135.835 135.838-30.404-30.404 724.285-724.285 30.404 30.404-134.423 134.422 198.062 197.983zM615.322 362.104l-147.272 147.272c13.417 5.666 28.153 8.803 43.609 8.803 62.014 0 112.465-50.451 112.465-112.464 0-15.456-3.138-30.193-8.803-43.61zM648.909 328.517c12.89 22.826 20.261 49.165 20.261 77.197 0 86.85-70.66 157.509-157.51 157.509-28.031 0-54.37-7.37-77.196-20.261l-86.65 86.65c47.24 34.768 104.031 53.55 163.845 53.55 75.059 0 145.382-29.539 198.014-83.178l194.359-194.265-166.196-166.129-88.927 88.927zM511.659 128.257c-75.058 0-145.381 29.541-198.013 83.181l-194.36 194.282 165.647 165.564-31.852 31.852-197.513-197.414 226.012-225.919c29.679-30.225 64.373-53.981 103.118-70.606 40.185-17.243 82.902-25.986 126.963-25.986s86.776 8.743 126.962 25.986c24.518 10.52 47.405 23.903 68.434 39.966l-32.174 32.174c-47.12-34.47-103.677-53.081-163.224-53.081z" />
<glyph unicode="&#xe94d;" glyph-name="circle-danger-light" d="M661.037 552.686l-44.342 44.341-104.689-104.689-104.689 104.689-44.343-44.342 104.69-104.69-104.69-104.689 44.342-44.342 104.689 104.69 104.69-104.69 44.342 44.343-104.689 104.689zM512.013 808.249c-198.645 0-360.253-161.611-360.253-360.255 0-198.637 161.608-360.245 360.253-360.245 198.63 0 360.228 161.607 360.228 360.245 0 198.643-161.597 360.255-360.228 360.255zM512.014 144.972c-167.093 0-303.031 135.938-303.031 303.023 0 167.091 135.938 303.033 303.031 303.033 167.079 0 303.007-135.942 303.007-303.033-0.001-167.085-135.928-303.023-303.007-303.023z" />
</font>
</defs>
</svg>
